<?xml version="1.0" encoding="UTF-8"?>
<svg xmlns="http://www.w3.org/2000/svg" xmlns:xlink="http://www.w3.org/1999/xlink" viewBox="0 0 50 50" width="50px" height="50px">
<g id="surface2807170">
<path style=" stroke:none;fill-rule:nonzero;fill:rgb(80.000001%,80.000001%,80.000001%);fill-opacity:1;" d="M 25 50 C 11.191406 50 0 38.808594 0 25 C 0 11.191406 11.191406 0 25 0 C 38.808594 0 50 11.191406 50 25 C 50 38.808594 38.808594 50 25 50 Z M 25 50 "/>
<path style=" stroke:none;fill-rule:nonzero;fill:rgb(93.333334%,24.313726%,32.941177%);fill-opacity:1;" d="M 10.199219 15.800781 C 9.757812 15.800781 9.398438 16.15625 9.398438 16.601562 C 9.398438 17.042969 9.757812 17.398438 10.199219 17.398438 C 10.640625 17.398438 11 17.042969 11 16.601562 C 11 16.15625 10.640625 15.800781 10.199219 15.800781 Z M 10.199219 15.800781 "/>
<path style=" stroke:none;fill-rule:nonzero;fill:rgb(94.509804%,73.725492%,9.803922%);fill-opacity:1;" d="M 35.800781 9.800781 C 35.578125 9.800781 35.398438 9.980469 35.398438 10.199219 C 35.398438 10.421875 35.578125 10.601562 35.800781 10.601562 C 36.019531 10.601562 36.199219 10.421875 36.199219 10.199219 C 36.199219 9.980469 36.019531 9.800781 35.800781 9.800781 Z M 35.800781 9.800781 "/>
<path style=" stroke:none;fill-rule:nonzero;fill:rgb(94.509804%,76.862746%,5.882353%);fill-opacity:1;" d="M 25 10.199219 C 16.828125 10.199219 10.199219 16.828125 10.199219 25 C 10.199219 33.171875 16.828125 39.800781 25 39.800781 C 33.171875 39.800781 39.800781 33.171875 39.800781 25 C 39.800781 16.828125 33.171875 10.199219 25 10.199219 Z M 25 10.199219 "/>
<path style=" stroke:none;fill-rule:nonzero;fill:rgb(94.509804%,73.725492%,9.803922%);fill-opacity:1;" d="M 38.199219 9.398438 C 37.316406 9.398438 36.601562 10.117188 36.601562 11 C 36.601562 11.882812 37.316406 12.601562 38.199219 12.601562 C 39.082031 12.601562 39.800781 11.882812 39.800781 11 C 39.800781 10.117188 39.082031 9.398438 38.199219 9.398438 Z M 38.199219 9.398438 "/>
<path style=" stroke:none;fill-rule:nonzero;fill:rgb(93.333334%,24.313726%,32.941177%);fill-opacity:1;" d="M 39.800781 13.800781 C 39.359375 13.800781 39 14.15625 39 14.601562 C 39 15.042969 39.359375 15.398438 39.800781 15.398438 C 40.242188 15.398438 40.601562 15.042969 40.601562 14.601562 C 40.601562 14.15625 40.242188 13.800781 39.800781 13.800781 Z M 39.800781 13.800781 "/>
<path style=" stroke:none;fill-rule:nonzero;fill:rgb(98.431373%,80.392158%,34.901962%);fill-opacity:1;" d="M 37.398438 34.601562 C 36.957031 34.601562 36.601562 34.957031 36.601562 35.398438 C 36.601562 35.84375 36.957031 36.199219 37.398438 36.199219 C 37.84375 36.199219 38.199219 35.84375 38.199219 35.398438 C 38.199219 34.957031 37.84375 34.601562 37.398438 34.601562 Z M 11 28.601562 C 10.117188 28.601562 9.398438 29.316406 9.398438 30.199219 C 9.398438 31.082031 10.117188 31.800781 11 31.800781 C 11.882812 31.800781 12.601562 31.082031 12.601562 30.199219 C 12.601562 29.316406 11.882812 28.601562 11 28.601562 Z M 11 28.601562 "/>
<path style=" stroke:none;fill-rule:nonzero;fill:rgb(93.333334%,24.313726%,32.941177%);fill-opacity:1;" d="M 15 39 C 14.558594 39 14.199219 39.359375 14.199219 39.800781 C 14.199219 40.242188 14.558594 40.601562 15 40.601562 C 15.441406 40.601562 15.800781 40.242188 15.800781 39.800781 C 15.800781 39.359375 15.441406 39 15 39 Z M 15 39 "/>
<path style=" stroke:none;fill-rule:nonzero;fill:rgb(100%,100%,100%);fill-opacity:1;" d="M 12.398438 25.398438 C 11.847656 25.398438 11.398438 25.847656 11.398438 26.398438 C 11.398438 26.953125 11.847656 27.398438 12.398438 27.398438 C 12.953125 27.398438 13.398438 26.953125 13.398438 26.398438 C 13.398438 25.847656 12.953125 25.398438 12.398438 25.398438 Z M 12.398438 25.398438 "/>
<path style=" stroke:none;fill-rule:nonzero;fill:rgb(94.509804%,73.725492%,9.803922%);fill-opacity:1;" d="M 13.398438 31.398438 C 13.179688 31.398438 13 31.578125 13 31.800781 C 13 32.019531 13.179688 32.199219 13.398438 32.199219 C 13.621094 32.199219 13.800781 32.019531 13.800781 31.800781 C 13.800781 31.578125 13.621094 31.398438 13.398438 31.398438 Z M 13.398438 31.398438 "/>
<path style=" stroke:none;fill-rule:nonzero;fill:rgb(100%,100%,100%);fill-opacity:1;" d="M 37 18.199219 C 36.777344 18.199219 36.601562 18.378906 36.601562 18.601562 C 36.601562 18.820312 36.777344 19 37 19 C 37.222656 19 37.398438 18.820312 37.398438 18.601562 C 37.398438 18.378906 37.222656 18.199219 37 18.199219 Z M 37 18.199219 "/>
<path style=" stroke:none;fill-rule:nonzero;fill:rgb(63.921571%,63.921571%,80.392158%);fill-opacity:1;" d="M 30.40625 23.910156 C 30.214844 23.910156 30.023438 23.898438 29.832031 23.875 C 29.816406 23.375 29.539062 22.960938 29.078125 22.769531 L 29.023438 22.746094 L 29.015625 22.746094 C 28.886719 22.699219 28.757812 22.675781 28.621094 22.675781 C 28.316406 22.675781 28.019531 22.796875 27.78125 23.015625 C 27.480469 22.785156 27.214844 22.523438 26.988281 22.226562 C 27.4375 21.730469 27.371094 21.238281 27.226562 20.902344 C 27.03125 20.441406 26.652344 20.1875 26.132812 20.164062 C 26.082031 19.792969 26.082031 19.417969 26.128906 19.046875 C 26.671875 19.023438 27.054688 18.757812 27.25 18.273438 C 27.378906 17.9375 27.429688 17.453125 26.984375 16.972656 C 27.210938 16.675781 27.476562 16.410156 27.769531 16.179688 C 28.027344 16.421875 28.308594 16.546875 28.609375 16.546875 C 28.769531 16.546875 28.9375 16.511719 29.105469 16.4375 C 29.445312 16.300781 29.835938 15.992188 29.851562 15.316406 C 30.035156 15.292969 30.21875 15.277344 30.40625 15.277344 C 30.589844 15.277344 30.78125 15.292969 30.96875 15.316406 C 30.988281 16.050781 31.433594 16.355469 31.8125 16.484375 C 31.945312 16.527344 32.078125 16.550781 32.207031 16.550781 C 32.515625 16.550781 32.800781 16.429688 33.054688 16.183594 C 33.347656 16.410156 33.613281 16.675781 33.839844 16.976562 C 33.460938 17.375 33.371094 17.820312 33.574219 18.3125 C 33.773438 18.789062 34.160156 19.050781 34.695312 19.0625 C 34.738281 19.335938 34.730469 19.898438 34.6875 20.179688 C 33.996094 20.207031 33.691406 20.613281 33.554688 20.957031 C 33.429688 21.285156 33.375 21.765625 33.8125 22.25 C 33.582031 22.542969 33.316406 22.808594 33.019531 23.03125 C 32.761719 22.800781 32.484375 22.679688 32.1875 22.679688 C 32 22.679688 31.808594 22.730469 31.613281 22.824219 C 31.195312 23.035156 30.976562 23.390625 30.953125 23.875 C 30.769531 23.898438 30.585938 23.910156 30.40625 23.910156 Z M 30.40625 18.71875 C 29.921875 18.71875 29.53125 19.109375 29.53125 19.59375 C 29.53125 20.078125 29.921875 20.46875 30.40625 20.46875 C 30.886719 20.46875 31.28125 20.074219 31.28125 19.59375 C 31.28125 19.109375 30.886719 18.71875 30.40625 18.71875 Z M 30.40625 18.71875 "/>
<path style=" stroke:none;fill-rule:nonzero;fill:rgb(27.843139%,16.862746%,16.078432%);fill-opacity:1;" d="M 30.402344 15.558594 C 30.503906 15.558594 30.605469 15.5625 30.710938 15.570312 C 30.800781 16.144531 31.152344 16.558594 31.722656 16.75 C 31.886719 16.804688 32.050781 16.832031 32.210938 16.832031 C 32.433594 16.832031 32.742188 16.777344 33.054688 16.546875 C 33.207031 16.679688 33.347656 16.820312 33.480469 16.976562 C 33.164062 17.410156 33.105469 17.910156 33.316406 18.421875 C 33.523438 18.925781 33.917969 19.238281 34.4375 19.320312 C 34.449219 19.507812 34.445312 19.742188 34.433594 19.925781 C 33.898438 20.015625 33.5 20.339844 33.296875 20.855469 C 33.105469 21.339844 33.164062 21.820312 33.453125 22.246094 C 33.320312 22.398438 33.175781 22.542969 33.019531 22.675781 C 32.761719 22.492188 32.480469 22.402344 32.1875 22.402344 C 31.957031 22.402344 31.722656 22.460938 31.484375 22.578125 C 31.167969 22.738281 30.804688 23.046875 30.699219 23.621094 C 30.601562 23.628906 30.503906 23.632812 30.40625 23.632812 C 30.296875 23.632812 30.191406 23.625 30.085938 23.617188 C 29.992188 23.121094 29.664062 22.710938 29.1875 22.511719 L 29.082031 22.464844 L 29.0625 22.464844 C 28.921875 22.421875 28.773438 22.398438 28.625 22.398438 C 28.324219 22.398438 28.035156 22.488281 27.785156 22.65625 C 27.628906 22.523438 27.480469 22.378906 27.347656 22.226562 C 27.648438 21.792969 27.699219 21.292969 27.484375 20.792969 C 27.277344 20.308594 26.894531 20.003906 26.386719 19.910156 C 26.371094 19.710938 26.371094 19.507812 26.386719 19.300781 C 26.914062 19.207031 27.304688 18.886719 27.511719 18.371094 C 27.703125 17.875 27.640625 17.390625 27.34375 16.972656 C 27.472656 16.820312 27.617188 16.675781 27.769531 16.542969 C 28.027344 16.730469 28.308594 16.828125 28.609375 16.828125 C 28.808594 16.828125 29.011719 16.785156 29.210938 16.699219 C 29.71875 16.488281 30.027344 16.09375 30.109375 15.570312 C 30.207031 15.5625 30.304688 15.558594 30.402344 15.558594 M 30.40625 20.75 C 31.042969 20.75 31.558594 20.230469 31.558594 19.59375 C 31.558594 18.957031 31.042969 18.4375 30.40625 18.4375 C 29.769531 18.4375 29.25 18.957031 29.25 19.59375 C 29.25 20.230469 29.769531 20.75 30.40625 20.75 M 30.402344 15 C 30.160156 15 29.917969 15.019531 29.679688 15.058594 C 29.613281 15.070312 29.570312 15.128906 29.570312 15.195312 C 29.59375 15.6875 29.40625 16.011719 28.996094 16.183594 C 28.863281 16.238281 28.734375 16.269531 28.609375 16.269531 C 28.347656 16.269531 28.109375 16.144531 27.882812 15.894531 C 27.855469 15.867188 27.820312 15.851562 27.785156 15.851562 C 27.757812 15.851562 27.730469 15.859375 27.707031 15.878906 C 27.3125 16.164062 26.964844 16.515625 26.679688 16.914062 C 26.640625 16.964844 26.648438 17.039062 26.695312 17.085938 C 27.050781 17.414062 27.144531 17.765625 26.988281 18.167969 C 26.828125 18.570312 26.523438 18.769531 26.054688 18.769531 C 26.039062 18.769531 26.019531 18.769531 26.003906 18.769531 C 26.003906 18.769531 26 18.769531 26 18.769531 C 25.933594 18.769531 25.878906 18.816406 25.871094 18.882812 C 25.792969 19.359375 25.792969 19.847656 25.875 20.332031 C 25.886719 20.394531 25.941406 20.441406 26.003906 20.441406 C 26.015625 20.441406 26.03125 20.441406 26.042969 20.441406 C 26.503906 20.441406 26.804688 20.632812 26.96875 21.015625 C 27.140625 21.421875 27.054688 21.785156 26.703125 22.121094 C 26.65625 22.164062 26.648438 22.238281 26.683594 22.289062 C 26.972656 22.6875 27.320312 23.03125 27.714844 23.316406 C 27.71875 23.320312 27.730469 23.324219 27.738281 23.328125 C 27.753906 23.335938 27.769531 23.339844 27.785156 23.339844 C 27.820312 23.339844 27.855469 23.324219 27.882812 23.300781 C 27.894531 23.292969 27.902344 23.285156 27.910156 23.28125 C 28.113281 23.070312 28.367188 22.957031 28.621094 22.957031 C 28.734375 22.957031 28.847656 22.980469 28.957031 23.023438 C 28.960938 23.023438 28.964844 23.027344 28.96875 23.027344 C 29.339844 23.183594 29.558594 23.527344 29.554688 23.945312 C 29.554688 24.019531 29.582031 24.117188 29.726562 24.140625 C 29.953125 24.175781 30.179688 24.191406 30.40625 24.191406 C 30.621094 24.191406 30.835938 24.175781 31.050781 24.148438 C 31.070312 24.140625 31.089844 24.140625 31.105469 24.136719 L 31.125 24.132812 C 31.183594 24.121094 31.230469 24.0625 31.230469 24 C 31.222656 23.554688 31.386719 23.257812 31.738281 23.078125 C 31.890625 23 32.042969 22.960938 32.1875 22.960938 C 32.441406 22.960938 32.683594 23.078125 32.910156 23.320312 C 32.9375 23.34375 32.972656 23.359375 33.003906 23.359375 C 33.03125 23.359375 33.058594 23.351562 33.082031 23.335938 C 33.480469 23.050781 33.828125 22.703125 34.117188 22.3125 C 34.152344 22.261719 34.148438 22.1875 34.097656 22.140625 C 33.753906 21.8125 33.664062 21.457031 33.816406 21.058594 C 33.976562 20.65625 34.289062 20.460938 34.761719 20.460938 C 34.777344 20.460938 34.789062 20.460938 34.804688 20.460938 C 34.804688 20.460938 34.808594 20.460938 34.808594 20.460938 C 34.867188 20.460938 34.914062 20.421875 34.933594 20.367188 C 35.023438 20.066406 35.03125 19.144531 34.9375 18.871094 C 34.921875 18.820312 34.871094 18.785156 34.816406 18.785156 C 34.8125 18.785156 34.8125 18.785156 34.808594 18.785156 C 34.785156 18.785156 34.761719 18.785156 34.738281 18.785156 C 34.292969 18.785156 33.992188 18.59375 33.832031 18.207031 C 33.660156 17.792969 33.757812 17.429688 34.125 17.089844 C 34.171875 17.042969 34.183594 16.96875 34.144531 16.917969 C 33.855469 16.515625 33.507812 16.164062 33.113281 15.878906 C 33.089844 15.863281 33.0625 15.855469 33.035156 15.855469 C 33 15.855469 32.964844 15.871094 32.941406 15.902344 C 32.71875 16.148438 32.472656 16.273438 32.207031 16.273438 C 32.109375 16.273438 32.007812 16.253906 31.902344 16.21875 C 31.441406 16.066406 31.226562 15.730469 31.25 15.195312 C 31.253906 15.125 31.203125 15.066406 31.136719 15.058594 C 30.890625 15.019531 30.648438 15 30.402344 15 Z M 30.40625 20.1875 C 30.074219 20.1875 29.808594 19.921875 29.808594 19.59375 C 29.808594 19.265625 30.074219 19 30.40625 19 C 30.734375 19 31 19.265625 31 19.59375 C 31 19.921875 30.734375 20.1875 30.40625 20.1875 Z M 30.40625 20.1875 "/>
<path style=" stroke:none;fill-rule:nonzero;fill:rgb(46.666667%,46.666667%,67.058825%);fill-opacity:1;" d="M 30.40625 17.433594 C 29.214844 17.433594 28.242188 18.402344 28.242188 19.59375 C 28.242188 20.785156 29.214844 21.757812 30.40625 21.757812 C 31.597656 21.757812 32.566406 20.785156 32.566406 19.59375 C 32.566406 19.148438 32.429688 18.730469 32.195312 18.386719 C 32.109375 18.253906 32.003906 18.132812 31.890625 18.023438 C 31.75 17.890625 31.59375 17.777344 31.421875 17.6875 C 31.269531 17.605469 31.105469 17.539062 30.933594 17.496094 C 30.765625 17.453125 30.585938 17.433594 30.40625 17.433594 Z M 30.40625 18.597656 C 30.953125 18.597656 31.398438 19.046875 31.398438 19.59375 C 31.398438 20.140625 30.953125 20.589844 30.40625 20.589844 C 29.859375 20.589844 29.410156 20.140625 29.410156 19.59375 C 29.410156 19.046875 29.859375 18.597656 30.40625 18.597656 Z M 30.40625 18.597656 "/>
<path style=" stroke:none;fill-rule:nonzero;fill:rgb(63.921571%,63.921571%,80.392158%);fill-opacity:1;" d="M 19.675781 35.078125 C 19.078125 34.933594 18.480469 34.6875 17.917969 34.355469 C 18.210938 33.617188 18.089844 32.984375 17.558594 32.464844 C 17.230469 32.144531 16.855469 31.984375 16.445312 31.984375 C 16.207031 31.984375 15.953125 32.042969 15.6875 32.152344 C 15.351562 31.601562 15.105469 31.007812 14.949219 30.398438 C 15.695312 30.085938 16.066406 29.542969 16.050781 28.785156 C 16.03125 28.054688 15.65625 27.539062 14.925781 27.253906 C 15.078125 26.625 15.320312 26.03125 15.644531 25.480469 C 15.898438 25.597656 16.171875 25.660156 16.425781 25.660156 C 16.851562 25.660156 17.234375 25.488281 17.566406 25.148438 C 18.089844 24.617188 18.191406 23.976562 17.867188 23.238281 C 18.410156 22.90625 19 22.660156 19.625 22.5 C 19.925781 23.253906 20.453125 23.640625 21.191406 23.640625 C 21.242188 23.640625 21.296875 23.636719 21.351562 23.632812 C 22.03125 23.582031 22.527344 23.1875 22.792969 22.492188 C 23.402344 22.640625 23.996094 22.886719 24.550781 23.222656 C 24.234375 23.972656 24.34375 24.621094 24.878906 25.148438 C 25.207031 25.472656 25.585938 25.640625 26 25.640625 C 26.25 25.640625 26.511719 25.578125 26.789062 25.460938 C 27.019531 25.785156 27.4375 26.796875 27.511719 27.21875 C 26.757812 27.535156 26.386719 28.078125 26.398438 28.835938 C 26.414062 29.554688 26.789062 30.070312 27.503906 30.371094 C 27.351562 30.988281 27.105469 31.578125 26.773438 32.128906 C 26.527344 32.023438 26.261719 31.964844 26.019531 31.964844 C 25.550781 31.964844 25.136719 32.167969 24.792969 32.574219 C 24.359375 33.074219 24.28125 33.667969 24.558594 34.339844 C 24.558594 34.339844 24.558594 34.339844 24.554688 34.339844 C 24 34.671875 23.421875 34.910156 22.8125 35.066406 C 22.519531 34.382812 21.929688 33.976562 21.21875 33.976562 L 21.148438 33.976562 L 21.140625 33.980469 C 20.488281 34.011719 19.933594 34.425781 19.675781 35.078125 Z M 21.214844 27.304688 C 20.402344 27.304688 19.738281 27.96875 19.738281 28.78125 C 19.738281 29.597656 20.402344 30.261719 21.214844 30.261719 C 22.03125 30.261719 22.695312 29.597656 22.695312 28.78125 C 22.695312 27.96875 22.03125 27.304688 21.214844 27.304688 Z M 21.214844 27.304688 "/>
<path style=" stroke:none;fill-rule:nonzero;fill:rgb(27.843139%,16.862746%,16.078432%);fill-opacity:1;" d="M 22.949219 22.828125 C 23.386719 22.949219 23.804688 23.125 24.207031 23.347656 C 23.898438 24.296875 24.28125 24.953125 24.679688 25.347656 C 25.066406 25.726562 25.511719 25.921875 26 25.921875 C 26.214844 25.921875 26.4375 25.882812 26.671875 25.804688 C 26.84375 26.125 27.078125 26.6875 27.1875 27.0625 C 26.292969 27.527344 26.109375 28.273438 26.117188 28.84375 C 26.132812 29.378906 26.332031 30.078125 27.171875 30.523438 C 27.046875 30.960938 26.871094 31.382812 26.648438 31.78125 C 26.429688 31.71875 26.21875 31.683594 26.019531 31.683594 C 25.464844 31.683594 24.980469 31.921875 24.582031 32.386719 C 24.257812 32.765625 23.953125 33.375 24.214844 34.214844 C 23.8125 34.433594 23.390625 34.609375 22.953125 34.738281 C 22.601562 34.082031 21.96875 33.695312 21.21875 33.695312 L 21.070312 33.699219 L 21.054688 33.707031 C 20.402344 33.761719 19.839844 34.144531 19.519531 34.746094 C 19.082031 34.621094 18.660156 34.445312 18.257812 34.230469 C 18.535156 33.296875 18.152344 32.652344 17.753906 32.261719 C 17.371094 31.894531 16.929688 31.707031 16.445312 31.707031 C 16.242188 31.707031 16.027344 31.738281 15.8125 31.808594 C 15.585938 31.40625 15.410156 30.988281 15.28125 30.554688 C 16.160156 30.089844 16.339844 29.347656 16.328125 28.777344 C 16.316406 28.234375 16.113281 27.527344 15.257812 27.09375 C 15.378906 26.65625 15.550781 26.234375 15.769531 25.832031 C 15.992188 25.90625 16.214844 25.941406 16.425781 25.941406 C 16.929688 25.941406 17.378906 25.742188 17.761719 25.347656 C 18.15625 24.949219 18.527344 24.292969 18.210938 23.359375 C 18.605469 23.140625 19.027344 22.964844 19.464844 22.832031 C 19.914062 23.722656 20.636719 23.917969 21.191406 23.917969 C 21.25 23.917969 21.308594 23.914062 21.371094 23.910156 C 22.074219 23.859375 22.621094 23.480469 22.949219 22.828125 M 21.214844 30.539062 C 22.183594 30.539062 22.972656 29.75 22.972656 28.78125 C 22.972656 27.8125 22.183594 27.027344 21.214844 27.027344 C 20.246094 27.027344 19.460938 27.8125 19.460938 28.78125 C 19.460938 29.75 20.246094 30.539062 21.214844 30.539062 M 22.734375 22.199219 C 22.652344 22.199219 22.578125 22.25 22.554688 22.328125 C 22.332031 22.964844 21.921875 23.308594 21.332031 23.351562 C 21.28125 23.355469 21.238281 23.359375 21.191406 23.359375 C 20.550781 23.359375 20.113281 23.023438 19.859375 22.328125 C 19.828125 22.253906 19.757812 22.203125 19.679688 22.203125 C 19.664062 22.203125 19.644531 22.207031 19.628906 22.210938 C 18.917969 22.382812 18.253906 22.664062 17.652344 23.042969 C 17.570312 23.09375 17.539062 23.199219 17.578125 23.289062 C 17.890625 23.941406 17.824219 24.492188 17.363281 24.953125 C 17.085938 25.242188 16.773438 25.382812 16.425781 25.382812 C 16.195312 25.382812 15.953125 25.320312 15.6875 25.199219 C 15.660156 25.1875 15.632812 25.183594 15.605469 25.183594 C 15.542969 25.183594 15.480469 25.214844 15.441406 25.273438 C 15.070312 25.890625 14.796875 26.5625 14.636719 27.261719 C 14.613281 27.355469 14.664062 27.453125 14.757812 27.488281 C 15.425781 27.730469 15.753906 28.15625 15.769531 28.792969 C 15.785156 29.453125 15.460938 29.902344 14.777344 30.167969 C 14.6875 30.203125 14.636719 30.300781 14.660156 30.394531 C 14.828125 31.085938 15.109375 31.75 15.488281 32.363281 C 15.527344 32.421875 15.589844 32.453125 15.65625 32.453125 C 15.679688 32.453125 15.707031 32.449219 15.730469 32.4375 C 15.988281 32.324219 16.222656 32.265625 16.445312 32.265625 C 16.785156 32.265625 17.089844 32.398438 17.363281 32.664062 C 17.828125 33.121094 17.914062 33.660156 17.632812 34.316406 C 17.59375 34.402344 17.625 34.503906 17.707031 34.558594 C 18.324219 34.929688 18.988281 35.203125 19.683594 35.363281 C 19.695312 35.367188 19.707031 35.367188 19.71875 35.367188 C 19.796875 35.367188 19.875 35.316406 19.90625 35.246094 C 19.917969 35.230469 19.925781 35.214844 19.929688 35.199219 C 20.148438 34.625 20.636719 34.265625 21.203125 34.261719 C 21.207031 34.257812 21.214844 34.257812 21.21875 34.257812 C 21.820312 34.257812 22.304688 34.597656 22.535156 35.167969 C 22.574219 35.253906 22.644531 35.351562 22.789062 35.351562 C 22.816406 35.351562 22.847656 35.347656 22.882812 35.339844 C 23.519531 35.175781 24.125 34.925781 24.683594 34.59375 C 24.707031 34.578125 24.730469 34.558594 24.75 34.546875 L 24.773438 34.535156 C 24.851562 34.484375 24.878906 34.378906 24.84375 34.292969 C 24.578125 33.695312 24.628906 33.191406 25.007812 32.753906 C 25.296875 32.414062 25.632812 32.246094 26.019531 32.246094 C 26.242188 32.246094 26.480469 32.300781 26.734375 32.410156 C 26.757812 32.421875 26.785156 32.425781 26.808594 32.425781 C 26.875 32.425781 26.9375 32.390625 26.976562 32.332031 C 27.355469 31.71875 27.628906 31.054688 27.796875 30.359375 C 27.816406 30.269531 27.769531 30.171875 27.679688 30.140625 C 27.019531 29.886719 26.695312 29.457031 26.679688 28.832031 C 26.667969 28.171875 26.992188 27.722656 27.679688 27.453125 C 27.757812 27.425781 27.808594 27.339844 27.796875 27.257812 C 27.753906 26.792969 27.230469 25.539062 26.957031 25.222656 C 26.917969 25.183594 26.867188 25.160156 26.8125 25.160156 C 26.785156 25.160156 26.757812 25.167969 26.730469 25.179688 C 26.472656 25.300781 26.230469 25.359375 26 25.359375 C 25.660156 25.359375 25.351562 25.222656 25.074219 24.949219 C 24.605469 24.488281 24.53125 23.9375 24.835938 23.269531 C 24.878906 23.179688 24.847656 23.074219 24.765625 23.023438 C 24.144531 22.640625 23.476562 22.367188 22.777344 22.203125 C 22.761719 22.199219 22.746094 22.199219 22.734375 22.199219 Z M 21.214844 29.980469 C 20.554688 29.980469 20.019531 29.445312 20.019531 28.78125 C 20.019531 28.121094 20.554688 27.585938 21.214844 27.585938 C 21.878906 27.585938 22.414062 28.121094 22.414062 28.78125 C 22.414062 29.445312 21.878906 29.980469 21.214844 29.980469 Z M 21.214844 29.980469 "/>
<path style=" stroke:none;fill-rule:nonzero;fill:rgb(46.666667%,46.666667%,67.058825%);fill-opacity:1;" d="M 21.214844 25 C 19.128906 25 17.433594 26.695312 17.433594 28.78125 C 17.433594 30.871094 19.128906 32.566406 21.214844 32.566406 C 23.304688 32.566406 25 30.871094 25 28.78125 C 25 26.695312 23.304688 25 21.214844 25 Z M 21.214844 31.214844 C 19.875 31.214844 18.785156 30.125 18.785156 28.78125 C 18.785156 27.441406 19.875 26.351562 21.214844 26.351562 C 22.558594 26.351562 23.648438 27.441406 23.648438 28.78125 C 23.648438 30.125 22.558594 31.214844 21.214844 31.214844 Z M 21.214844 31.214844 "/>
<path style=" stroke:none;fill-rule:nonzero;fill:rgb(27.843139%,16.862746%,16.078432%);fill-opacity:1;" d="M 21.433594 32.660156 C 21.378906 32.660156 21.335938 32.617188 21.332031 32.566406 C 21.328125 32.511719 21.371094 32.464844 21.425781 32.460938 C 22.132812 32.421875 22.804688 32.179688 23.375 31.765625 C 23.421875 31.734375 23.484375 31.742188 23.515625 31.789062 C 23.546875 31.832031 23.539062 31.894531 23.492188 31.925781 C 22.890625 32.363281 22.179688 32.617188 21.4375 32.660156 C 21.4375 32.660156 21.433594 32.660156 21.433594 32.660156 Z M 20.875 32.652344 C 20.871094 32.652344 20.871094 32.652344 20.867188 32.652344 C 19.183594 32.5 17.800781 31.289062 17.429688 29.640625 C 17.414062 29.585938 17.449219 29.53125 17.503906 29.519531 C 17.558594 29.507812 17.609375 29.542969 17.625 29.597656 C 17.976562 31.160156 19.289062 32.308594 20.882812 32.453125 C 20.941406 32.457031 20.980469 32.503906 20.976562 32.558594 C 20.972656 32.613281 20.925781 32.652344 20.875 32.652344 Z M 23.964844 31.480469 C 23.941406 31.480469 23.917969 31.472656 23.898438 31.453125 C 23.855469 31.414062 23.855469 31.351562 23.894531 31.3125 C 24.121094 31.070312 24.316406 30.796875 24.472656 30.503906 C 24.5 30.453125 24.5625 30.4375 24.609375 30.460938 C 24.65625 30.488281 24.675781 30.546875 24.648438 30.597656 C 24.484375 30.90625 24.28125 31.191406 24.039062 31.449219 C 24.019531 31.46875 23.992188 31.480469 23.964844 31.480469 Z M 21.214844 31.316406 C 19.820312 31.316406 18.683594 30.179688 18.683594 28.78125 C 18.683594 27.386719 19.820312 26.25 21.214844 26.25 C 22.613281 26.25 23.75 27.386719 23.75 28.78125 C 23.75 30.179688 22.613281 31.316406 21.214844 31.316406 Z M 21.214844 26.449219 C 19.929688 26.449219 18.882812 27.496094 18.882812 28.78125 C 18.882812 30.070312 19.929688 31.113281 21.214844 31.113281 C 22.503906 31.113281 23.546875 30.070312 23.546875 28.78125 C 23.546875 27.496094 22.503906 26.449219 21.214844 26.449219 Z M 24.832031 29.992188 C 24.824219 29.992188 24.8125 29.992188 24.804688 29.988281 C 24.75 29.972656 24.722656 29.917969 24.738281 29.863281 C 24.84375 29.515625 24.898438 29.152344 24.898438 28.78125 C 24.898438 27.480469 24.199219 26.261719 23.070312 25.601562 C 23.023438 25.574219 23.007812 25.511719 23.035156 25.464844 C 23.0625 25.414062 23.125 25.398438 23.171875 25.429688 C 24.363281 26.125 25.101562 27.410156 25.101562 28.78125 C 25.101562 29.171875 25.042969 29.554688 24.929688 29.921875 C 24.914062 29.964844 24.875 29.992188 24.832031 29.992188 Z M 17.433594 28.882812 C 17.378906 28.882812 17.332031 28.839844 17.332031 28.78125 C 17.332031 26.640625 19.074219 24.898438 21.214844 24.898438 C 21.46875 24.898438 21.71875 24.921875 21.960938 24.972656 C 22.015625 24.980469 22.050781 25.035156 22.039062 25.089844 C 22.027344 25.140625 21.976562 25.175781 21.921875 25.167969 C 21.691406 25.121094 21.453125 25.097656 21.214844 25.097656 C 19.183594 25.097656 17.53125 26.75 17.53125 28.78125 C 17.53125 28.839844 17.488281 28.882812 17.433594 28.882812 Z M 22.757812 25.425781 C 22.742188 25.425781 22.730469 25.425781 22.714844 25.417969 C 22.589844 25.363281 22.460938 25.3125 22.332031 25.273438 C 22.28125 25.253906 22.25 25.199219 22.269531 25.144531 C 22.285156 25.09375 22.339844 25.066406 22.394531 25.082031 C 22.53125 25.125 22.664062 25.175781 22.796875 25.238281 C 22.847656 25.257812 22.871094 25.320312 22.847656 25.367188 C 22.832031 25.40625 22.796875 25.425781 22.757812 25.425781 Z M 22.757812 25.425781 "/>
<path style=" stroke:none;fill-rule:nonzero;fill:rgb(27.843139%,16.862746%,16.078432%);fill-opacity:1;" d="M 24.980469 29.007812 C 24.972656 29.007812 24.964844 29.007812 24.957031 29.007812 L 23.617188 28.722656 C 23.5625 28.710938 23.527344 28.660156 23.539062 28.605469 C 23.550781 28.550781 23.601562 28.519531 23.660156 28.527344 L 25 28.808594 C 25.054688 28.820312 25.089844 28.875 25.078125 28.929688 C 25.066406 28.976562 25.023438 29.007812 24.980469 29.007812 Z M 23.523438 28.085938 C 23.46875 28.085938 23.421875 28.042969 23.421875 27.984375 C 23.421875 27.929688 23.46875 27.886719 23.523438 27.886719 L 24.894531 27.878906 C 24.949219 27.878906 24.992188 27.925781 24.992188 27.980469 C 24.992188 28.035156 24.949219 28.082031 24.894531 28.082031 Z M 32.492188 20.101562 C 32.484375 20.101562 32.472656 20.097656 32.464844 20.09375 L 31.214844 19.703125 C 31.160156 19.683594 31.132812 19.628906 31.148438 19.578125 C 31.164062 19.523438 31.21875 19.496094 31.273438 19.511719 L 32.523438 19.90625 C 32.578125 19.921875 32.605469 19.976562 32.589844 20.03125 C 32.574219 20.074219 32.535156 20.101562 32.492188 20.101562 Z M 29.730469 21.742188 C 29.714844 21.742188 29.695312 21.738281 29.679688 21.730469 C 29.632812 21.699219 29.617188 21.636719 29.644531 21.589844 L 30.421875 20.335938 C 30.449219 20.289062 30.511719 20.273438 30.558594 20.300781 C 30.605469 20.332031 30.621094 20.394531 30.589844 20.441406 L 29.816406 21.695312 C 29.796875 21.726562 29.765625 21.742188 29.730469 21.742188 Z M 29.730469 21.742188 "/>
<path style=" stroke:none;fill-rule:nonzero;fill:rgb(27.843139%,16.862746%,16.078432%);fill-opacity:1;" d="M 28.917969 21.164062 C 28.886719 21.164062 28.859375 21.148438 28.839844 21.121094 C 28.804688 21.078125 28.816406 21.015625 28.859375 20.980469 L 29.929688 20.1875 C 29.972656 20.15625 30.035156 20.164062 30.070312 20.207031 C 30.101562 20.253906 30.09375 20.316406 30.046875 20.347656 L 28.980469 21.144531 C 28.960938 21.15625 28.941406 21.164062 28.917969 21.164062 Z M 28.917969 21.164062 "/>
<path style=" stroke:none;fill-rule:nonzero;fill:rgb(27.843139%,16.862746%,16.078432%);fill-opacity:1;" d="M 29.738281 19.207031 C 29.691406 19.207031 29.648438 19.171875 29.640625 19.125 L 29.351562 17.707031 C 29.339844 17.652344 29.375 17.601562 29.429688 17.589844 C 29.484375 17.578125 29.535156 17.613281 29.546875 17.667969 L 29.835938 19.085938 C 29.847656 19.140625 29.8125 19.195312 29.757812 19.203125 C 29.75 19.207031 29.742188 19.207031 29.738281 19.207031 Z M 29.738281 19.207031 "/>
<path style=" stroke:none;fill-rule:nonzero;fill:rgb(27.843139%,16.862746%,16.078432%);fill-opacity:1;" d="M 30.28125 18.859375 C 30.277344 18.859375 30.277344 18.859375 30.273438 18.859375 C 30.21875 18.855469 30.175781 18.804688 30.183594 18.75 L 30.3125 17.453125 C 30.320312 17.398438 30.363281 17.355469 30.421875 17.363281 C 30.476562 17.367188 30.515625 17.417969 30.511719 17.472656 L 30.382812 18.769531 C 30.375 18.820312 30.332031 18.859375 30.28125 18.859375 Z M 30.28125 18.859375 "/>
<path style=" stroke:none;fill-rule:nonzero;fill:rgb(27.843139%,16.862746%,16.078432%);fill-opacity:1;" d="M 21.082031 26.460938 C 21.074219 26.460938 21.066406 26.460938 21.058594 26.457031 C 21.007812 26.445312 20.972656 26.390625 20.984375 26.339844 L 21.285156 25 C 21.296875 24.945312 21.351562 24.914062 21.40625 24.925781 C 21.460938 24.9375 21.496094 24.992188 21.480469 25.046875 L 21.179688 26.382812 C 21.167969 26.429688 21.128906 26.460938 21.082031 26.460938 Z M 21.082031 26.460938 "/>
<path style=" stroke:none;fill-rule:nonzero;fill:rgb(27.843139%,16.862746%,16.078432%);fill-opacity:1;" d="M 19.75 26.878906 C 19.699219 26.878906 19.65625 26.84375 19.648438 26.792969 L 19.46875 25.433594 C 19.460938 25.378906 19.5 25.328125 19.554688 25.320312 C 19.613281 25.316406 19.660156 25.351562 19.667969 25.40625 L 19.847656 26.765625 C 19.855469 26.820312 19.816406 26.871094 19.761719 26.878906 C 19.757812 26.878906 19.753906 26.878906 19.75 26.878906 Z M 19.75 26.878906 "/>
<path style=" stroke:none;fill-rule:nonzero;fill:rgb(27.843139%,16.862746%,16.078432%);fill-opacity:1;" d="M 20.402344 26.570312 C 20.347656 26.566406 20.304688 26.523438 20.304688 26.46875 L 20.3125 25.097656 C 20.3125 25.042969 20.363281 25 20.414062 24.996094 C 20.46875 25 20.511719 25.042969 20.511719 25.097656 L 20.503906 26.46875 C 20.503906 26.523438 20.457031 26.570312 20.402344 26.570312 Z M 20.402344 26.570312 "/>
<path style=" stroke:none;fill-rule:nonzero;fill:rgb(27.843139%,16.862746%,16.078432%);fill-opacity:1;" d="M 23.160156 27.40625 C 23.109375 27.40625 23.066406 27.367188 23.058594 27.316406 C 23.054688 27.261719 23.09375 27.210938 23.148438 27.207031 L 24.511719 27.0625 C 24.566406 27.058594 24.617188 27.097656 24.621094 27.152344 C 24.628906 27.207031 24.589844 27.257812 24.53125 27.261719 L 23.171875 27.40625 C 23.167969 27.40625 23.164062 27.40625 23.160156 27.40625 Z M 23.160156 27.40625 "/>
<path style=" stroke:none;fill-rule:nonzero;fill:rgb(27.843139%,16.862746%,16.078432%);fill-opacity:1;" d="M 20.160156 32.492188 C 20.144531 32.492188 20.125 32.488281 20.113281 32.480469 C 20.0625 32.453125 20.046875 32.390625 20.074219 32.34375 L 20.734375 31.144531 C 20.761719 31.09375 20.824219 31.078125 20.871094 31.105469 C 20.921875 31.132812 20.9375 31.191406 20.910156 31.242188 L 20.246094 32.441406 C 20.230469 32.472656 20.195312 32.492188 20.160156 32.492188 Z M 20.160156 32.492188 "/>
<path style=" stroke:none;fill-rule:nonzero;fill:rgb(27.843139%,16.862746%,16.078432%);fill-opacity:1;" d="M 19.148438 31.988281 C 19.117188 31.988281 19.085938 31.972656 19.066406 31.945312 C 19.035156 31.898438 19.046875 31.835938 19.089844 31.804688 L 20.210938 31.015625 C 20.253906 30.980469 20.316406 30.992188 20.351562 31.039062 C 20.382812 31.082031 20.371094 31.144531 20.324219 31.179688 L 19.207031 31.96875 C 19.1875 31.980469 19.167969 31.988281 19.148438 31.988281 Z M 19.148438 31.988281 "/>
<path style=" stroke:none;fill-rule:nonzero;fill:rgb(27.843139%,16.862746%,16.078432%);fill-opacity:1;" d="M 18.410156 31.386719 C 18.375 31.386719 18.339844 31.367188 18.320312 31.332031 C 18.296875 31.28125 18.316406 31.222656 18.367188 31.195312 L 19.59375 30.589844 C 19.644531 30.566406 19.703125 30.585938 19.730469 30.636719 C 19.753906 30.683594 19.734375 30.746094 19.683594 30.769531 L 18.453125 31.375 C 18.441406 31.382812 18.425781 31.386719 18.410156 31.386719 Z M 18.410156 31.386719 "/>
<path style=" stroke:none;fill-rule:nonzero;fill:rgb(27.843139%,16.862746%,16.078432%);fill-opacity:1;" d="M 17.933594 30.71875 C 17.890625 30.71875 17.851562 30.691406 17.839844 30.648438 C 17.820312 30.597656 17.847656 30.539062 17.902344 30.523438 L 19.203125 30.089844 C 19.253906 30.070312 19.308594 30.097656 19.328125 30.152344 C 19.34375 30.203125 19.316406 30.261719 19.265625 30.277344 L 17.964844 30.710938 C 17.953125 30.714844 17.945312 30.71875 17.933594 30.71875 Z M 17.933594 30.71875 "/>
<path style=" stroke:none;fill-rule:nonzero;fill:rgb(27.843139%,16.862746%,16.078432%);fill-opacity:1;" d="M 30.40625 21.855469 C 29.160156 21.855469 28.144531 20.839844 28.144531 19.59375 C 28.144531 19.539062 28.1875 19.492188 28.242188 19.492188 C 28.296875 19.492188 28.34375 19.539062 28.34375 19.59375 C 28.34375 20.730469 29.269531 21.65625 30.40625 21.65625 C 30.730469 21.65625 31.042969 21.582031 31.332031 21.4375 C 31.378906 21.414062 31.441406 21.429688 31.464844 21.480469 C 31.488281 21.53125 31.46875 21.589844 31.421875 21.613281 C 31.105469 21.773438 30.761719 21.855469 30.40625 21.855469 Z M 31.886719 21.269531 C 31.859375 21.269531 31.832031 21.257812 31.8125 21.238281 C 31.773438 21.195312 31.777344 21.132812 31.816406 21.09375 C 32.230469 20.707031 32.46875 20.160156 32.46875 19.59375 C 32.46875 19.09375 32.285156 18.609375 31.953125 18.230469 C 31.914062 18.191406 31.921875 18.128906 31.960938 18.089844 C 32.003906 18.054688 32.066406 18.058594 32.101562 18.097656 C 32.464844 18.511719 32.667969 19.042969 32.667969 19.59375 C 32.667969 20.214844 32.40625 20.8125 31.953125 21.242188 C 31.933594 21.257812 31.910156 21.269531 31.886719 21.269531 Z M 30.40625 20.6875 C 29.800781 20.6875 29.3125 20.199219 29.3125 19.59375 C 29.3125 18.992188 29.800781 18.5 30.40625 18.5 C 31.007812 18.5 31.5 18.992188 31.5 19.59375 C 31.5 20.199219 31.007812 20.6875 30.40625 20.6875 Z M 30.40625 18.699219 C 29.914062 18.699219 29.511719 19.101562 29.511719 19.59375 C 29.511719 20.085938 29.914062 20.488281 30.40625 20.488281 C 30.898438 20.488281 31.300781 20.085938 31.300781 19.59375 C 31.300781 19.101562 30.898438 18.699219 30.40625 18.699219 Z M 28.566406 18.558594 C 28.546875 18.558594 28.527344 18.554688 28.511719 18.546875 C 28.464844 18.515625 28.449219 18.453125 28.480469 18.40625 C 28.894531 17.734375 29.617188 17.332031 30.40625 17.332031 C 30.59375 17.332031 30.78125 17.355469 30.964844 17.402344 C 31.019531 17.414062 31.050781 17.46875 31.035156 17.523438 C 31.023438 17.578125 30.96875 17.609375 30.914062 17.597656 C 30.75 17.554688 30.578125 17.53125 30.40625 17.53125 C 29.6875 17.53125 29.03125 17.898438 28.648438 18.511719 C 28.628906 18.542969 28.597656 18.558594 28.566406 18.558594 Z M 31.730469 17.988281 C 31.707031 17.988281 31.6875 17.980469 31.667969 17.964844 C 31.558594 17.878906 31.4375 17.804688 31.308594 17.742188 C 31.261719 17.714844 31.242188 17.65625 31.265625 17.605469 C 31.289062 17.558594 31.351562 17.539062 31.398438 17.5625 C 31.539062 17.628906 31.667969 17.710938 31.792969 17.808594 C 31.835938 17.839844 31.84375 17.902344 31.808594 17.949219 C 31.789062 17.972656 31.761719 17.988281 31.730469 17.988281 Z M 31.730469 17.988281 "/>
</g>
</svg>
